<svg id="Calque_1" data-name="Calque 1" xmlns="http://www.w3.org/2000/svg" xmlns:xlink="http://www.w3.org/1999/xlink" viewBox="0 0 2745.74 1880.81"><defs><style>.cls-1{fill:none;}.cls-2{fill:#2c2c2c;}.cls-3{fill:#eaf6ff;}.cls-4{fill:#0c0c0c;}.cls-5{fill:#fff;}.cls-6{fill:#ffe600;}.cls-7{fill:#6b6b6b;}.cls-8{fill:#008280;}.cls-9{fill:#303030;}.cls-10{fill:#c0d8dd;}.cls-11{fill:#f3674f;}.cls-12{clip-path:url(#clip-path);}.cls-13{fill:#ff9d8a;}.cls-14{fill:#ed7462;}.cls-15{fill:#121212;}.cls-16{fill:#fcd500;}.cls-17{fill:#ffeb4b;}.cls-18{fill:#d5b300;}.cls-19{fill:#0b88b1;}.cls-20{fill:#ffde00;}.cls-21{fill:#8e8e8e;}.cls-22{fill:#0073a5;}.cls-23{fill:#1e1e1e;}</style><clipPath id="clip-path" transform="translate(-627.13 -85.27)"><rect class="cls-1" x="1374.63" y="33.93" width="1373.27" height="1206.42"/></clipPath></defs><rect class="cls-2" x="329.72" y="222.66" width="2209.61" height="1370.09" rx="83.7"/><path class="cls-3" d="M3068.31,453.91V1457c0,29.52-25.53,53.46-57,53.46H1112.08a58.64,58.64,0,0,1-42.44-17.74A51.33,51.33,0,0,1,1055,1457V453.91c0-29.52,25.56-53.46,57.07-53.46H3011.27a59.48,59.48,0,0,1,28.86,7.35C3057,417.08,3068.31,434.27,3068.31,453.91Z" transform="translate(-627.13 -85.27)"/><path class="cls-4" d="M3372.87,1630.38V1638a173.38,173.38,0,0,1-173.41,173.4H923.86A173.38,173.38,0,0,1,750.45,1638v-7.62Z" transform="translate(-627.13 -85.27)"/><path class="cls-2" d="M2081,1720.89a25.07,25.07,0,1,1-25.06-25.07A25.07,25.07,0,0,1,2081,1720.89Z" transform="translate(-627.13 -85.27)"/><path class="cls-2" d="M1992.48,1720.89a25.07,25.07,0,1,1-25.06-25.07A25.07,25.07,0,0,1,1992.48,1720.89Z" transform="translate(-627.13 -85.27)"/><path class="cls-2" d="M2169.57,1720.89a25.07,25.07,0,1,1-25.07-25.07A25.08,25.08,0,0,1,2169.57,1720.89Z" transform="translate(-627.13 -85.27)"/><path class="cls-5" d="M3048.67,1720.89a25.07,25.07,0,1,1-25.07-25.07A25.07,25.07,0,0,1,3048.67,1720.89Z" transform="translate(-627.13 -85.27)"/><path class="cls-6" d="M3137.21,1720.89a25.07,25.07,0,1,1-25.07-25.07A25.07,25.07,0,0,1,3137.21,1720.89Z" transform="translate(-627.13 -85.27)"/><path class="cls-7" d="M1767.75,1630.38v1.74c0,13.73,9.19,24.86,20.53,24.86h535.36c11.34,0,20.53-11.13,20.53-24.86v-1.74Z" transform="translate(-627.13 -85.27)"/><path class="cls-5" d="M3068.31,457.52V520.7H1055V457.52a57.13,57.13,0,0,1,57.07-57.07H3011.27a57.13,57.13,0,0,1,57,57.07Z" transform="translate(-627.13 -85.27)"/><path class="cls-8" d="M2906.26,463.66a15.1,15.1,0,1,1-15.1-15.1A15.1,15.1,0,0,1,2906.26,463.66Z" transform="translate(-627.13 -85.27)"/><path class="cls-9" d="M2955.18,463.66a15.1,15.1,0,1,1-15.09-15.1A15.1,15.1,0,0,1,2955.18,463.66Z" transform="translate(-627.13 -85.27)"/><path class="cls-6" d="M3001.75,463.66a15.1,15.1,0,1,1-15.1-15.1A15.1,15.1,0,0,1,3001.75,463.66Z" transform="translate(-627.13 -85.27)"/><rect class="cls-10" x="623.99" y="362.42" width="1564.08" height="31.94" rx="15.28"/><path class="cls-2" d="M1150.43,463.66v14.78a2.71,2.71,0,0,1-4.07,2.35l-12.8-7.39-12.8-7.4a2.7,2.7,0,0,1,0-4.69l12.8-7.39,12.8-7.4a2.71,2.71,0,0,1,4.07,2.35Z" transform="translate(-627.13 -85.27)"/><path class="cls-2" d="M1172.93,463.66v14.78a2.71,2.71,0,0,0,4.06,2.35l12.81-7.39,12.8-7.4a2.7,2.7,0,0,0,0-4.69l-12.8-7.39-12.81-7.4a2.71,2.71,0,0,0-4.06,2.35Z" transform="translate(-627.13 -85.27)"/><rect class="cls-5" x="741.76" y="485.56" width="1462.31" height="820.82" rx="34.26"/><path class="cls-10" d="M2547.22,1146.66a28,28,0,0,0,3.88,15c1.25,2.13,2.55,4.23,3.75,6.39l20.48,37,13.43-24.2c3.57-6.43,7.44-12.68,11.19-19a28.35,28.35,0,0,0-26.33-42.74A28.48,28.48,0,0,0,2547.22,1146.66Zm16.38-2.7a12,12,0,1,1,12,12A12,12,0,0,1,2563.6,1144Z" transform="translate(-627.13 -85.27)"/><path class="cls-10" d="M2433.39,1162.81a42.54,42.54,0,1,0,42.54-42.53A42.58,42.58,0,0,0,2433.39,1162.81Zm23.87,15.71a56.3,56.3,0,0,1-2.27-14.9h19.23v14.9Zm10,22.45a39,39,0,0,1-25.47-19h13a47.27,47.27,0,0,0,7.39,13.56A43,43,0,0,0,2467.29,1201Zm6.93-19v20a35.65,35.65,0,0,1-9.45-8.62,43.6,43.6,0,0,1-6.35-11.33Zm-14.86-40.07a53.35,53.35,0,0,1,13.33-18l1.53-.09v18.13Zm-16.45,0a39.33,39.33,0,0,1,23.82-17.08,58.27,58.27,0,0,0-5.38,6.63,55.92,55.92,0,0,0-5.73,10.45Zm12.1,18.33a48.83,48.83,0,0,1,2.95-14.91h16.26v14.91Zm-18.11,0a38.72,38.72,0,0,1,4.06-14.91h13.37a52.47,52.47,0,0,0-2.74,14.91Zm14.67,3.42a59.74,59.74,0,0,0,2.13,14.9h-13.59a38.71,38.71,0,0,1-3.29-14.9Zm48.32,0H2515a38.71,38.71,0,0,1-3.29,14.9h-14A60.21,60.21,0,0,0,2499.89,1163.62Zm-22.25-21.75v-18.13l1.08.06a50,50,0,0,1,8.63,9.66,52.83,52.83,0,0,1,4.76,8.41Zm15.86,3.42a49.62,49.62,0,0,1,2.95,14.91h-18.81v-14.91Zm2.34-3.42a56.55,56.55,0,0,0-5.74-10.45,57.49,57.49,0,0,0-5.49-6.75,39.3,39.3,0,0,1,24.33,17.2Zm.63,21.75a56,56,0,0,1-2.27,14.9h-16.56v-14.9Zm3.4-3.42a52.48,52.48,0,0,0-2.75-14.91h13.77a38.63,38.63,0,0,1,4.06,14.91Zm10.16,21.74a39.47,39.47,0,0,1-26,19.14,43.63,43.63,0,0,0,5.25-5.58,47.52,47.52,0,0,0,7.39-13.56Zm-17,0c-4.72,12.26-12.8,18.09-15.39,19.71v-19.71Z" transform="translate(-627.13 -85.27)"/><path class="cls-10" d="M2674.37,1147.94c0-3.68-3.57-5.58-8-5.58a14,14,0,0,0-12.36,8.08l-21.15-10.58c6.06-11.41,18.06-19.25,37.07-19.25,18.66,0,32.56,7.84,32.56,22.7,0,18.18-19,21.39-19,30.54H2659C2659,1159.47,2674.37,1155.19,2674.37,1147.94Zm-18.78,44.68c0-8,6.42-14,15.69-14s15.69,6.06,15.69,14-6.42,14.26-15.69,14.26S2655.59,1200.46,2655.59,1192.62Z" transform="translate(-627.13 -85.27)"/><rect class="cls-5" x="2200.11" y="645.21" width="96.84" height="301.02" rx="10.81"/><rect class="cls-2" x="2216.4" y="768.11" width="53.2" height="41.05" rx="7.76"/><polygon class="cls-2" points="2285.01 768.11 2285.01 809.15 2268.43 795.2 2268.43 782.06 2285.01 768.11"/><circle class="cls-11" cx="2250.71" cy="881.97" r="34.17"/><path class="cls-5" d="M2861.72,986.94a3.58,3.58,0,0,0,2.54-1.05l32.23-32.23a3.59,3.59,0,0,0-5.08-5.07l-32.23,32.22a3.59,3.59,0,0,0,2.54,6.13Z" transform="translate(-627.13 -85.27)"/><path class="cls-5" d="M2894,986.94a3.59,3.59,0,0,0,2.54-6.13l-32.23-32.22a3.59,3.59,0,0,0-5.08,5.07l32.23,32.23A3.58,3.58,0,0,0,2894,986.94Z" transform="translate(-627.13 -85.27)"/><rect class="cls-2" x="2868.43" y="751.2" width="18.8" height="49.01" rx="8.5" transform="translate(5128.54 1466.15) rotate(-180)"/><rect class="cls-2" x="2875.91" y="788.84" width="3.84" height="22.99" rx="1.74" transform="translate(5128.54 1515.41) rotate(180)"/><rect class="cls-2" x="2858.95" y="805.52" width="37.77" height="8.08" rx="3.65" transform="translate(5128.54 1533.85) rotate(180)"/><rect class="cls-3" x="790.57" y="881.89" width="370.67" height="208.08" rx="16.08"/><rect class="cls-3" x="1742.64" y="555.2" width="370.67" height="208.08" rx="16.08"/><rect class="cls-3" x="1742.09" y="887.34" width="371.22" height="17.81" rx="8.52"/><rect class="cls-3" x="1742.09" y="811.99" width="371.22" height="17.81" rx="8.52"/><rect class="cls-3" x="1742.09" y="962.7" width="371.22" height="17.81" rx="8.52"/><rect class="cls-3" x="790.02" y="711.16" width="371.22" height="17.81" rx="8.52"/><rect class="cls-3" x="790.02" y="635.81" width="371.22" height="17.81" rx="8.52"/><rect class="cls-3" x="790.02" y="786.52" width="371.22" height="17.81" rx="8.52"/><path class="cls-2" d="M1368.89,1264.17H2831.2v119.89a7.59,7.59,0,0,1-7.6,7.58H1376.48a7.59,7.59,0,0,1-7.59-7.58Z" transform="translate(-627.13 -85.27)"/><path class="cls-5" d="M2726.35,1311.42v-10.8h13.53V1291h-18.34a4.8,4.8,0,0,0-4.8,4.81v15.61Z" transform="translate(-627.13 -85.27)"/><path class="cls-5" d="M2726.35,1330.66h-9.61v16.43a4.8,4.8,0,0,0,4.8,4.81h18.34v-9.61h-13.53Z" transform="translate(-627.13 -85.27)"/><path class="cls-5" d="M2768,1311.42h9.62v-15.61a4.81,4.81,0,0,0-4.81-4.81H2755.2v9.62H2768Z" transform="translate(-627.13 -85.27)"/><path class="cls-5" d="M2768,1330.66v11.63H2755.2v9.61h17.63a4.81,4.81,0,0,0,4.81-4.81v-16.43Z" transform="translate(-627.13 -85.27)"/><rect class="cls-3" x="741.76" y="1154.94" width="1462.31" height="23.97"/><path class="cls-6" d="M1448,639.76a20.12,20.12,0,1,1-20.12-20.12A20.12,20.12,0,0,1,1448,639.76Z" transform="translate(-627.13 -85.27)"/><g class="cls-12"><path class="cls-13" d="M2499.55,453s17.39,39.43,49.61,39c26-.38,43-29.85,48.63-41.18,1.33-2.71,2-4.37,2-4.37a42.82,42.82,0,0,0,4.58-1c6.36-1.73,17.38-6,19.8-15,3.44-12.82-21.58-14.51-21.58-14.51s9.09-13.61,4.15-20.52-21.12-4.27-21.12-4.27,14.21-15.49,6-23.68c-12.35-12.32-25.88,8.23-27.06,9.47.79-1.56,17-30.16,3.83-31.15-11.49-.86-25.79,15.51-34.18,30.23-1.33,2.33-2.07,3.68-2.07,3.68s-.82-.34-2.23-.83c-6.7-2.35-26.88-8.06-35.64,4.16C2483.68,397.77,2499.55,453,2499.55,453Z" transform="translate(-627.13 -85.27)"/><path class="cls-14" d="M2537.73,470.1a2.49,2.49,0,0,0,2.15-4.3c-5.53-4.91-8.33-10.65-8.33-17.07,0-16.46,17.89-32.45,18.07-32.61a2.48,2.48,0,1,0-3.29-3.72c-.8.71-19.72,17.66-19.75,36.32,0,7.9,3.35,14.9,10,20.8A2.45,2.45,0,0,0,2537.73,470.1Z" transform="translate(-627.13 -85.27)"/><path class="cls-14" d="M2543.46,405.32a7.86,7.86,0,0,0,6.85,6.06,17.59,17.59,0,0,0,4.59-.14,17.55,17.55,0,0,0-2.43,3.32,8.43,8.43,0,0,0-1.13,3.3,6.49,6.49,0,0,0,2.63,5.8c5.19,4.12,14.64,3.91,22.12,2.89-4.4,4.41-7.85,9.74-8.27,14.3a7.79,7.79,0,0,0,2.82,7.1,14.68,14.68,0,0,0,6.21,2.48c6.39,1.3,15.14.88,20.93.36,1.35-2.71,2-4.38,2-4.38a41.83,41.83,0,0,0,4.6-1,2.39,2.39,0,0,0-1.38-.19c-9.18,1.26-25.24,2.08-29.27-1.14a2.87,2.87,0,0,1-1-2.78c.46-5,7.54-13.34,14.55-17.12a2.43,2.43,0,0,0,1.13-3.09,2.47,2.47,0,0,0-3-1.49c-5.92,1.65-22.55,4.86-28.41.17-.85-.67-.81-1.17-.77-1.44.1-1.19,1.17-2.68,2.78-4.27a61.17,61.17,0,0,1,12.87-9,2.36,2.36,0,0,0,1-1.08,2.39,2.39,0,0,0,0-2.28,2.5,2.5,0,0,0-3.38-1c-.78.42-2.39,1.29-4.36,2.52a56,56,0,0,1-10.78,3.2,9.86,9.86,0,0,1-4.36-.06,2.87,2.87,0,0,1-1.87-2.26c-.53-2-.21-4.86.71-8a2.44,2.44,0,0,0-.89-2.64l-.07-.05a2.43,2.43,0,0,0-3.82,1.25C2543.05,398.51,2542.67,402.31,2543.46,405.32Z" transform="translate(-627.13 -85.27)"/><path class="cls-4" d="M2549.47,355.7a67.81,67.81,0,0,0-9.14,11.2c-2.59,4.14-4.32,6.35-6.11,9.1h0l-4.4-208.24a2.45,2.45,0,0,1,4.9-.24l14.75,188.18Z" transform="translate(-627.13 -85.27)"/><path class="cls-4" d="M2537.38,475.1c18.71,6.2,21.23-2.62,21.23-2.62l-3.77-48.2a10.56,10.56,0,0,1-.87-.62,6.49,6.49,0,0,1-2.63-5.8,8.43,8.43,0,0,1,1.13-3.3,13.52,13.52,0,0,1,1.44-2.13l-.08-1.05a17.22,17.22,0,0,1-3.52,0,7.7,7.7,0,0,1-1.76-.39,7.27,7.27,0,0,1-4-3.12,12.41,12.41,0,0,1-6.38,5.1,17.56,17.56,0,0,1-2.31.67Z" transform="translate(-627.13 -85.27)"/><path class="cls-14" d="M2504.86,406.71a81.8,81.8,0,0,0,18.54,6.53c5.15,1,10.51,1.33,14.79-.27a12.38,12.38,0,0,0,7.44-7.17c5-12.21-5-23.91-11.41-29.8-1.33,2.33-2.07,3.68-2.07,3.68s-.82-.34-2.23-.83c5.44,4.8,15.15,15.18,11.1,25.07a7.43,7.43,0,0,1-4.56,4.39c-8.26,3.09-24-3.31-29.34-6a2.49,2.49,0,0,0-2.26,4.43Z" transform="translate(-627.13 -85.27)"/><path class="cls-9" d="M2244.89,423l0-.09s0-.1,0,0l.13.25.27.55.66,1.34,1.44,3c.49,1,1,2,1.55,3.09s1.05,2.08,1.61,3.14c2.18,4.2,4.48,8.49,6.88,12.73,4.84,8.47,9.86,16.95,15.28,25.16s10.94,16.36,16.85,24.17c3,3.88,5.94,7.78,9,11.55s6.18,7.53,9.29,11.26c6.38,7.3,12.92,14.42,19.75,21.15,1.65,1.75,3.42,3.35,5.14,5s3.41,3.36,5.2,4.92c3.55,3.17,7,6.42,10.69,9.43,7.16,6.23,14.72,11.82,22.26,17.4,7.71,5.31,15.47,10.51,23.53,15.11,2,1.15,4,2.35,6,3.48l6.16,3.23,3.07,1.62.77.41-.39-.21-.53-.25a18.81,18.81,0,0,0-2.2-.84,30.43,30.43,0,0,0-10-1.84c-.82,0-1.51,0-2.28,0q-.56,0-1.11.12l-.94.07a17.24,17.24,0,0,0-1.82.33,9.57,9.57,0,0,0-1.41.31c-.22,0-.5.17-.65.2l-.5.13a9.09,9.09,0,0,0-.91.36,2.83,2.83,0,0,0-.57.23l-.25.14-.12,0c-.64.4.7-.17,2.55-1.62a73.15,73.15,0,0,0,6.94-6.26c2.61-2.63,5.37-5.69,8.16-9,5.61-6.61,11.29-14.28,16.9-22.3s11.12-16.58,16.53-25.34,10.79-17.72,16-26.87,10.42-18.4,15.45-27.76q3.83-7,7.53-14l7.21-13.6,92.7,38.21-1.58,4.58-1.52,4.26-3.06,8.39q-3.15,8.31-6.44,16.52c-4.45,10.94-9.09,21.81-14.05,32.62s-10.2,21.57-15.82,32.32c-2.83,5.37-5.71,10.73-8.74,16.1s-6.18,10.71-9.47,16.08a371.83,371.83,0,0,1-22.15,32.36c-4.22,5.43-8.72,10.9-13.78,16.43a178.29,178.29,0,0,1-17.48,16.8,127.9,127.9,0,0,1-25.48,16.76l-2,1c-.7.33-1.46.65-2.19,1-1.47.63-3,1.24-4.45,1.83s-3.26,1.15-4.9,1.68l-2.48.79c-.83.25-1.8.48-2.69.71q-2.74.69-5.51,1.27c-1.94.36-4,.66-6,.92-1,.13-2,.26-3,.35s-2.14.15-3.21.2c-2.17.09-4.26.18-6.47.11a86.75,86.75,0,0,1-26.5-4.91c-2.05-.77-4.06-1.6-6.06-2.48l-1.49-.66-1.36-.63-1.09-.56-4.38-2.26-8.75-4.53c-2.88-1.57-5.71-3.22-8.56-4.84-11.45-6.42-22.33-13.69-33-21.16-10.51-7.67-20.81-15.64-30.49-24.2s-19-17.44-27.92-26.64l-6.55-7c-2.17-2.34-4.24-4.77-6.35-7.16s-4.21-4.79-6.22-7.25l-6.08-7.35A468.75,468.75,0,0,1,2177,529.88c-6.15-11-12-22.09-17.27-33.61-2.64-5.77-5.22-11.57-7.63-17.58-.61-1.48-1.21-3-1.8-4.54s-1.18-3-1.76-4.63-1.18-3.18-1.75-4.81l-2-5.81Z" transform="translate(-627.13 -85.27)"/><path class="cls-15" d="M2522.89,492.37a6.92,6.92,0,1,1-8-5.67A6.92,6.92,0,0,1,2522.89,492.37Z" transform="translate(-627.13 -85.27)"/><path class="cls-15" d="M2413.37,643.39a3,3,0,0,1-3.34-1.45c-10.92-20.11-17.2-47.25-17.46-48.39a3,3,0,0,1,5.76-1.32c.06.27,6.37,27.51,16.9,46.89a3,3,0,0,1-1.86,4.27Z" transform="translate(-627.13 -85.27)"/><path class="cls-15" d="M2389.71,627.4a3,3,0,0,1-3.62-3.48c.19-.89,4.66-21.77,7.61-28.4a3,3,0,1,1,5.4,2.39c-2.7,6.08-7.19,27-7.24,27.24A2.94,2.94,0,0,1,2389.71,627.4Z" transform="translate(-627.13 -85.27)"/><path class="cls-15" d="M2557.82,542.64a3,3,0,0,1-2.28-.34c-30.33-18.52-94.48-43.6-95.12-43.85a3,3,0,0,1,2.14-5.5c.65.25,65.28,25.52,96.06,44.31a3,3,0,0,1,1,4.06A3,3,0,0,1,2557.82,542.64Z" transform="translate(-627.13 -85.27)"/><path class="cls-15" d="M2529.22,527.49a2.9,2.9,0,0,1-2-.19,3,3,0,0,1-1.41-3.93l20-42.17a3,3,0,0,1,5.34,2.53l-20,42.16A2.93,2.93,0,0,1,2529.22,527.49Z" transform="translate(-627.13 -85.27)"/><path class="cls-2" d="M1930.25,1104.44q1,3.86,2.1,7.53a2.45,2.45,0,0,0,.08.29q1.54,5,3.42,9.57c11.1,27,96.54,30.85,180.61,21.28,65.21-7.42,129.62-22.9,157.87-41.85C2300.86,1083.48,2244,920,2244,920l-318.92,67.57S1918,1055.58,1930.25,1104.44Z" transform="translate(-627.13 -85.27)"/><path class="cls-2" d="M2151.76,1390.69H2310c-5.73-87.55-14.58-185.83-25.41-289.06-.29-2.75-.57-5.5-.87-8.27q-1.44-13.75-2.95-27.64c-.27-2.47-.54-4.93-.8-7.41l-30.69,14.2-7.52,3.49-120.52,55.78,1.25,10.61Z" transform="translate(-627.13 -85.27)"/><path class="cls-4" d="M2170.65,1390.69h7.9l-32.38-243.55a3.91,3.91,0,1,0-7.76,1Z" transform="translate(-627.13 -85.27)"/><path class="cls-4" d="M2207.74,1005.72c.39,2,8.17,42,34.05,70.28a90.77,90.77,0,0,0,18,15.29,75.72,75.72,0,0,0,16.67,8,67.43,67.43,0,0,0,8.18,2.29c-.29-2.75-.57-5.5-.87-8.27-1.32-.34-2.63-.71-3.92-1.14a68.71,68.71,0,0,1-15.84-7.51,80.54,80.54,0,0,1-14.68-12.2c-25.82-26.88-33.78-67.76-33.87-68.24a3.92,3.92,0,0,0-7.7,1.45Z" transform="translate(-627.13 -85.27)"/><path class="cls-4" d="M2143.48,1126.09a3.21,3.21,0,0,1-3.08,3.3h0a3.2,3.2,0,0,1-3.42-3c-.6-11.79-1.31-23.87-2.1-35.94q-.2-3.18-.42-6.37c-2.64-39.43-6-78.13-8.48-105.46-.21-2.21-.4-4.35-.6-6.41-.56-6-1.07-11.32-1.5-15.82,2.17-.34,4.33-.69,6.46-1.06.44,4.5.94,9.87,1.51,15.93.2,2.06.39,4.21.59,6.41,2.49,27.09,5.8,65.46,8.44,104.65.15,2.16.29,4.34.44,6.5C2142.11,1101.34,2142.86,1113.87,2143.48,1126.09Z" transform="translate(-627.13 -85.27)"/><path class="cls-4" d="M2152.69,1084.45a84.9,84.9,0,0,1-11.39,4.39,65.1,65.1,0,0,1-6.44,1.63,46.14,46.14,0,0,1-6.17.82,22.5,22.5,0,0,1-11-1.7,13.34,13.34,0,0,1-7.44-9.94c-2.4-12.16-7.47-62.39-10.89-97.91-.22-2.18-.42-4.31-.62-6.38-.54-5.69-1-10.85-1.44-15.25,2.15-.26,4.32-.53,6.49-.82.41,4.42.9,9.65,1.46,15.41q.3,3.09.61,6.38c3.42,35.44,8.48,85.59,10.8,97.37a7,7,0,0,0,3.94,5.5c3.46,1.64,8.64,1.29,13.79.15,2.19-.48,4.38-1.1,6.42-1.76a77.92,77.92,0,0,0,8.94-3.52,3.3,3.3,0,0,1,4.37,1.41A3.1,3.1,0,0,1,2152.69,1084.45Z" transform="translate(-627.13 -85.27)"/><path class="cls-2" d="M1932.33,1111.89a.28.28,0,0,1,0,.09,1.35,1.35,0,0,0,0,.28c.24,2.54.49,5.13.73,7.76,7.08,74.64,18,186.85,27.42,270.67h156.41l-.57-299.42s-43.58-20.7-90.38-36.53c-2.53-.86-5.07-1.69-7.62-2.52-4.83-1.56-9.67-3.06-14.49-4.46-2.56-.75-5.12-1.47-7.66-2.16-28.82-7.84-55.59-11.7-70.58-5.43,0,0,2.31,25.38,6,64.27C1931.86,1106.86,1932.1,1109.34,1932.33,1111.89Z" transform="translate(-627.13 -85.27)"/><path class="cls-4" d="M1983,1390.69c-9-102.19-20.07-256.89-20.21-258.87a3.92,3.92,0,1,0-7.81.56c.14,2,11.17,156,20.16,258.31Z" transform="translate(-627.13 -85.27)"/><path class="cls-4" d="M1932.33,1111.89a.28.28,0,0,1,0,.09,1.35,1.35,0,0,0,0,.28c.24,2.54.49,5.13.73,7.76a63,63,0,0,0,32.49-3c20-7.3,35.73-23.73,47.11-40.08a202,202,0,0,0,22.57-43.14,3.91,3.91,0,1,0-7.38-2.61A199.48,199.48,0,0,1,2006,1072.7c-10.65,15.26-25.07,30.44-43.09,37A55.57,55.57,0,0,1,1932.33,1111.89Z" transform="translate(-627.13 -85.27)"/><path class="cls-5" d="M1877.33,754q.84,12.5,2.12,25c4.31,41.75,20.33,181.45,34.73,220.57,53.12,25.74,112.63,35.1,169.37,32.64,10.81-.48,21.52-1.38,32.06-2.68q14-1.72,27.58-4.36c59-11.41,110.59-35.16,142.6-65.16-15.13-58.62-32.82-164.9-39.43-210.5q-1.86-12.75-3.33-24.85-1.46-11.82-2.59-23.06c-.86-8.54-1.61-16.87-2.22-24.93q-1-13-1.59-25.15-.63-13-.88-25.06c-2.33-109.75,17.72-163.93,12.42-190.23-8-39.59-44.58-39-77.93-51.46-1.94-.71-3.88-1.48-5.8-2.31-1.31-.56-2.58-1.14-3.84-1.73-11.45-5.44-22.09-13.15-30.53-25.42l-97.92.19s-8,6.51-22.15,13.76c-1.32.69-2.69,1.36-4.16,2.05-3.5,1.66-7.36,3.33-11.59,4.94a185,185,0,0,1-36.83,9.76c-43.89,7.08-69.07,53.77-73.69,129.49-2.32,38.23-4.82,74.26-6.45,109-.11,2.31-.22,4.6-.32,6.9C1875.1,673.63,1874.61,714,1877.33,754Z" transform="translate(-627.13 -85.27)"/><polygon class="cls-6" points="1520.83 724.34 1504.06 765.02 1504.06 765.03 1496.54 783.31 1475.27 834.96 1464.92 815.05 1461.25 808 1452.95 792.04 1449.29 784.99 1440.97 769.03 1437.31 761.98 1429.01 746.03 1429.01 746.01 1425.33 738.97 1417.53 723.97 1417.69 722.34 1418.87 710.42 1421.58 683.42 1422.77 671.49 1425.47 644.48 1426.66 632.56 1429.36 605.55 1430.55 593.63 1433.24 566.61 1434.43 554.69 1437.13 527.68 1438.32 515.76 1441.02 488.76 1442.21 476.83 1444.9 449.83 1446.09 437.9 1448.79 410.89 1449.98 398.97 1451.28 385.96 1452.77 371.05 1473.4 370.2 1474.01 374.84 1475.28 384.3 1475.66 387.2 1478.15 405.72 1479.41 415.17 1482.29 436.6 1483.55 446.05 1486.43 467.48 1487.68 476.93 1490.56 498.35 1491.83 507.8 1494.69 529.24 1495.96 538.68 1498.83 560.11 1500.1 569.55 1502.96 590.98 1504.23 600.45 1507.1 621.87 1508.37 631.32 1511.23 652.75 1512.5 662.21 1515.37 683.63 1516.63 693.08 1519.5 714.5 1520.77 723.96 1520.83 724.34"/><polygon class="cls-16" points="1475.66 387.2 1463.44 408.94 1451.28 385.96 1452.77 371.05 1473.4 370.2 1474.01 374.84 1475.28 384.3 1475.66 387.2"/><path class="cls-9" d="M1877.33,754q.84,12.5,2.12,25c4.31,41.75,20.33,181.45,34.73,220.57,53.12,25.74,112.63,35.1,169.37,32.64l29.8-47.13,29.84,40.09c59-11.41,110.59-35.16,142.6-65.16-5.48-21.24-11.3-48.74-16.81-77.34-1.31-6.86-2.63-13.8-3.9-20.72-8.08-43.82-15.07-87.33-18.72-112.44q-1.86-12.75-3.33-24.85-1.46-11.82-2.59-23.06c-.86-8.54-1.61-16.87-2.22-24.93q-1-13-1.59-25.15-.63-13-.88-25.06c-2.33-109.75,17.72-163.93,12.42-190.23-8-39.59-44.58-39-77.93-51.46l-1.66.83-72.74,321.95-99.75-330.87s-.65-.17-1.84-.43a185,185,0,0,1-36.83,9.76c-43.89,7.08-69.07,53.77-73.69,129.49-2.32,38.23-4.82,74.26-6.45,109-.11,2.31-.22,4.6-.32,6.9C1875.1,673.63,1874.61,714,1877.33,754Z" transform="translate(-627.13 -85.27)"/><path class="cls-15" d="M1939.18,1015a3.51,3.51,0,0,1-3.28-2.27c-47.9-127.48-47.13-370.2-47.12-372.64a3.51,3.51,0,0,1,3.51-3.48h0a3.51,3.51,0,0,1,3.49,3.52c0,2.42-.78,243.87,46.67,370.14a3.5,3.5,0,0,1-2,4.5A3.57,3.57,0,0,1,1939.18,1015Z" transform="translate(-627.13 -85.27)"/><path class="cls-15" d="M2182.43,856.73c27.66,11.24,62.9,20.42,86.55,25.94-1.31-6.86-2.63-13.8-3.9-20.72-36.19-8.88-78.15-22.17-78.15-22.17Z" transform="translate(-627.13 -85.27)"/><path class="cls-15" d="M2034.85,853.4s-71.26,42.81-103.88,55l9.93,17.36s62-28.14,102.27-56.95Z" transform="translate(-627.13 -85.27)"/><path class="cls-15" d="M2168.58,385.6s25.37-13.2,44.06,12.27l-16.32,105.49-36.89,21.92,25,14.93-28,122.63-60.63,44.71Z" transform="translate(-627.13 -85.27)"/><path class="cls-15" d="M2010.4,376.22s-26.9-17.09-45.5,8.45l23,119.09,37,21.77-25,15,28.45,122.53,67.48,44.46Z" transform="translate(-627.13 -85.27)"/><path class="cls-15" d="M2116.48,952.42a7.39,7.39,0,1,1-6.75-8A7.4,7.4,0,0,1,2116.48,952.42Z" transform="translate(-627.13 -85.27)"/><path class="cls-15" d="M2113.35,897.7a7.39,7.39,0,1,1-6.75-8A7.39,7.39,0,0,1,2113.35,897.7Z" transform="translate(-627.13 -85.27)"/><path class="cls-15" d="M2110.22,843a7.39,7.39,0,1,1-6.75-8A7.39,7.39,0,0,1,2110.22,843Z" transform="translate(-627.13 -85.27)"/><path class="cls-15" d="M2107.09,788.25a7.39,7.39,0,1,1-6.75-8A7.39,7.39,0,0,1,2107.09,788.25Z" transform="translate(-627.13 -85.27)"/><path class="cls-15" d="M2104,733.53a7.39,7.39,0,1,1-6.74-8A7.38,7.38,0,0,1,2104,733.53Z" transform="translate(-627.13 -85.27)"/><path class="cls-15" d="M2233,630.38a3.11,3.11,0,0,0,5.21-2.29c0-24.12.89-50,2.67-77.29.08-1.24.14-2.23.19-3a3.16,3.16,0,0,0-3-3.34,3.13,3.13,0,0,0-3.34,3c0,.72-.11,1.7-.19,2.93-1.79,27.37-2.67,53.38-2.68,77.62a3.14,3.14,0,0,0,1,2.31Z" transform="translate(-627.13 -85.27)"/><path class="cls-2" d="M2021.87,242s-22.4-16-27.7-41.18c-4.66-22.16,14-22.16,14-22.16s-15.28-24.07-6.13-42.08c11.45-22.52,34.33-18.2,34.33-18.2s-6.15-35.81,50.84-32.9,90.9,5.07,100.15,29.7-14,31.85-14,31.85,23,14,11.77,28.54-25.31,10.25-25.31,10.25Z" transform="translate(-627.13 -85.27)"/><path class="cls-14" d="M2136.93,232.06s7.06-26.59,28.68-21.62,25.76,75.9-14.94,75.59Z" transform="translate(-627.13 -85.27)"/><path class="cls-13" d="M2034.6,363.05s-5.08,9,34.58,19.92c20.93,5.79,46.27.3,58.88-7.14a78.49,78.49,0,0,0,8.05-5.32c-6.46-30.09-1.24-49.62.25-54.29.24-.71.38-1.07.38-1.07l-103.33-51.37Z" transform="translate(-627.13 -85.27)"/><path class="cls-2" d="M2048.07,304.32s24.85,68.26,80,71.51a78.49,78.49,0,0,0,8.05-5.32c-6.46-30.09-1.24-49.62.25-54.29Z" transform="translate(-627.13 -85.27)"/><path class="cls-13" d="M2088.16,340c42.6,7.86,76.3-10.76,80-47.26.9-8.8,1.24-21.53,1.28-34.79v-.41c0-2.81,0-5.67,0-8.51q0-3.09,0-6.15c-.26-23.66-1.16-45.09-1.16-45.09-6.71-58.68-65.09-80-111.45-57.19s-27.7,94.09-27.2,129S2051.62,333.22,2088.16,340Z" transform="translate(-627.13 -85.27)"/><path class="cls-5" d="M2096.58,270.28s6,19.48,21.94,22.63c18.13,3.6,22.2-19.08,22.2-19.08Z" transform="translate(-627.13 -85.27)"/><path class="cls-2" d="M2085.11,212.45c-12.05,2.56-15.47-10.33-4.6-17,5-3.07,10.4-5.69,16-5.73,15.88-.11,16.37,11.09,8.42,15.63A85.79,85.79,0,0,1,2085.11,212.45Z" transform="translate(-627.13 -85.27)"/><path class="cls-2" d="M2153.54,206c12.27,1.07,14.09-12.13,2.49-17.48-5.3-2.44-11-4.38-16.57-3.74-15.77,1.82-14.89,13-6.45,16.54A86,86,0,0,0,2153.54,206Z" transform="translate(-627.13 -85.27)"/><path class="cls-14" d="M2164.63,258.51a45.29,45.29,0,0,0,4.82-.61v-.41c0-2.81,0-5.67,0-8.51q0-3.09,0-6.15a47.6,47.6,0,0,0-5.94.09c-10.7.81-19.09,5-18.77,9.26S2153.93,259.33,2164.63,258.51Z" transform="translate(-627.13 -85.27)"/><path class="cls-5" d="M2160.64,255.23a26.48,26.48,0,1,1,20.88-31.09A26.52,26.52,0,0,1,2160.64,255.23Zm-9.46-48.15a22.59,22.59,0,1,0,26.52,17.81A22.61,22.61,0,0,0,2151.18,207.08Z" transform="translate(-627.13 -85.27)"/><path class="cls-2" d="M2128.76,262.17a1.84,1.84,0,0,0,.93-.33c9.6-6.61,11.44-10.1,11.71-10.73a1.89,1.89,0,0,0-.17-1.8l-13.91-20.93-.13-.18c-3-3.51-3.54-10.77-3.93-19.2a1.9,1.9,0,1,0-3.8.17c.41,9.08,1.05,17,4.75,21.41l13.15,19.79c-1,1.25-3.61,4-9.83,8.33a1.91,1.91,0,0,0,1.23,3.47Z" transform="translate(-627.13 -85.27)"/><path class="cls-14" d="M2052.94,250.56c.33,4.31,9.26,7.14,20,6.33s19.1-5,18.77-9.27-9.26-7.14-20-6.33S2052.61,246.25,2052.94,250.56Z" transform="translate(-627.13 -85.27)"/><path class="cls-5" d="M2097.59,257a26.48,26.48,0,1,1,20.88-31.08A26.52,26.52,0,0,1,2097.59,257Zm-9.46-48.15a22.59,22.59,0,1,0,26.52,17.81A22.61,22.61,0,0,0,2088.13,208.81Z" transform="translate(-627.13 -85.27)"/><path class="cls-5" d="M2131.26,231.24h0a1.93,1.93,0,0,1-2.25-1.58c0-.19-.95-5-4.59-4.82-4.06.2-5.58,4.7-5.6,4.75a1.94,1.94,0,0,1-3.69-1.21c.09-.29,2.39-7.09,9.1-7.42,5.66-.27,8.1,5.14,8.61,8A2,2,0,0,1,2131.26,231.24Z" transform="translate(-627.13 -85.27)"/><path class="cls-5" d="M2068.86,227.78a1.93,1.93,0,0,1-2.07-1c-10.5-18.87-30-9.59-30.86-9.19a1.94,1.94,0,0,1-1.72-3.48c.24-.12,23.67-11.35,36,10.78a2,2,0,0,1-.75,2.64A2.19,2.19,0,0,1,2068.86,227.78Z" transform="translate(-627.13 -85.27)"/><path class="cls-2" d="M2168.23,201.75h0c1.31-12.2,2.4-34.83-17.28-57.46-29.4-33.81-89.39-31.92-113.31,2.46S2025.47,211,2025.47,211s9.65,3.5,14.34,22.36l12.76-.52s4.82-15.79-.23-41.51,40.35-51.46,71.18-45.64,40.63,33.85,40.63,33.85A94.94,94.94,0,0,1,2168.23,201.75Z" transform="translate(-627.13 -85.27)"/><path class="cls-2" d="M2068.79,160.57s21.46-8.41,31.83-4.33,25.4,9.44,36.71,1.28,24.31,16,24.31,16-14.39-43-49.9-34.06S2076.37,145,2068.79,160.57Z" transform="translate(-627.13 -85.27)"/><path class="cls-14" d="M2123.91,301a13.74,13.74,0,0,0,1.39-.45,1.91,1.91,0,0,0,1-2.5,1.89,1.89,0,0,0-2.48-1c-.29.12-6.68,2.62-12-1.92a1.9,1.9,0,0,0-2.47,2.9A15.73,15.73,0,0,0,2123.91,301Z" transform="translate(-627.13 -85.27)"/><path class="cls-13" d="M2037.64,221.52s-12.34-19.52-32.27-9.8S1997.42,291.48,2037,282Z" transform="translate(-627.13 -85.27)"/><path class="cls-2" d="M2028.88,257.22a1.93,1.93,0,0,0,1.68-2.45c-.26-.86-6.53-21.08-25-23.9a1.91,1.91,0,1,0-.57,3.77c16.16,2.46,21.91,21,22,21.23A1.91,1.91,0,0,0,2028.88,257.22Z" transform="translate(-627.13 -85.27)"/><path class="cls-2" d="M2011.71,251a1.88,1.88,0,0,0,1.28-.63s3.62-4.08,7.89-8.12a1.91,1.91,0,1,0-2.62-2.77c-4.4,4.16-8,8.19-8.12,8.36a1.9,1.9,0,0,0,1.57,3.16Z" transform="translate(-627.13 -85.27)"/><path class="cls-2" d="M2090.08,230.56c.05,4.24,2.05,7.65,4.47,7.62s4.35-3.48,4.3-7.72-2-7.65-4.47-7.62S2090,226.32,2090.08,230.56Z" transform="translate(-627.13 -85.27)"/><path class="cls-2" d="M2139.48,230.7c.05,4.24,2.05,7.65,4.47,7.62s4.35-3.48,4.3-7.72-2.05-7.65-4.47-7.62S2139.43,226.46,2139.48,230.7Z" transform="translate(-627.13 -85.27)"/><path class="cls-5" d="M2033.08,338.45s-14.76,4.47-22.68,37.77c10.27,30.27,39.17,55.69,79.73,63.12L2090,379.8S2054.22,370.92,2033.08,338.45Z" transform="translate(-627.13 -85.27)"/><path class="cls-5" d="M2134,346.86s24.39,5.52,34.55,38.74c-26.13,31.91-40.09,43.93-78.45,53.74L2090,379.8S2113,379.41,2134,346.86Z" transform="translate(-627.13 -85.27)"/><polygon class="cls-6" points="1435.46 345.44 1463.06 386.3 1489.36 345.33 1462.92 311.21 1435.46 345.44"/><path class="cls-10" d="M2145.68,472.46a3.15,3.15,0,0,0,2.5-5.07l-55.62-72.83a3.18,3.18,0,0,0-2.41-1.24,3.21,3.21,0,0,0-2.48,1.08l-55,63.12a3.16,3.16,0,1,0,4.76,4.15l52.41-60.21,53.27,69.76A3.12,3.12,0,0,0,2145.68,472.46Z" transform="translate(-627.13 -85.27)"/><path class="cls-10" d="M2090.06,399.63h0a3.16,3.16,0,0,0,3.13-3.18l-.13-13.88a3.15,3.15,0,0,0-3.16-3.13h0a3.16,3.16,0,0,0-3.13,3.18l.12,13.88A3.16,3.16,0,0,0,2090.06,399.63Z" transform="translate(-627.13 -85.27)"/><path class="cls-13" d="M1928.56,983.67c6.92-1.9,17,5.34,26.19,7.76,12.07,3.19,29.18,11.7,37.58,19,5.09,4.45,30.46,33.4,41.89,46a7.19,7.19,0,0,1-.27,10.12c-3.76,3.39-11.63,3.32-26.83-10.7-.72-.58-5.38-4.63-5.86-5a33.33,33.33,0,0,0-13.49-6.66s8.46,7.62,22.93,21.38c-15.79,27.46-41.47,53.61-75.69,46.78-5.79-8.19-11.85-22.4-13.48-25.36-6.47-11.75-26.54-42-32.29-58.54C1885.33,1017.21,1906.67,989.69,1928.56,983.67Z" transform="translate(-627.13 -85.27)"/><path class="cls-9" d="M1914.49,411l-3.13,2.51-2.46,2-4.63,3.92c-3,2.59-5.89,5.15-8.74,7.73-5.67,5.17-11.13,10.38-16.48,15.66-10.71,10.56-20.93,21.41-30.81,32.57a640.36,640.36,0,0,0-54.3,71.16,578.49,578.49,0,0,0-43.75,79.28c-6.22,13.9-11.93,28.1-17,42.61-2.54,7.23-4.86,14.57-7.08,21.95-1.07,3.7-2.17,7.39-3.15,11.13l-.76,2.79-.37,1.4-.75,2.89a95.44,95.44,0,0,0-2.3,13.62,108.39,108.39,0,0,0-.49,11.42c0,3.55.22,6.76.48,9.84a152.29,152.29,0,0,0,2.44,16.56,221.63,221.63,0,0,0,7.31,26.72c2.72,8.08,5.65,15.58,8.67,22.82s6.18,14.16,9.43,20.93c6.48,13.52,13.26,26.37,20.22,38.92s14.15,24.74,21.48,36.74c14.63,24,29.9,47.2,45.56,70q11.82,17.06,23.93,33.83,6.06,8.4,12.21,16.75l6.25,8.32,6.47,8.52,84.32-59.43-5-8.07-5.14-8.33L1946.64,951q-10.23-16.82-20.12-33.82c-13.25-22.6-26.06-45.35-38.12-68.08-6-11.37-11.78-22.77-17.3-34.07s-10.65-22.58-15.2-33.61a299.19,299.19,0,0,1-11.28-31.4,96,96,0,0,1-2.74-12.36,21,21,0,0,1-.25-3.43c0-.27,0-.42.1-.24a5.55,5.55,0,0,1,0,1.35,22.91,22.91,0,0,1-.56,3.69l-.16.64,0,.16,0-.09.08-.26.33-1,.66-2.05c.85-2.74,1.81-5.46,2.73-8.18,1.92-5.43,3.9-10.84,6.08-16.2,4.28-10.75,9.14-21.33,14.37-31.78a480.55,480.55,0,0,1,36.48-60.67c6.84-9.75,14.09-19.28,21.61-28.62s15.36-18.47,23.47-27.32,16.42-17.53,25-25.76c4.27-4.12,8.6-8.14,12.92-12,2.14-1.94,4.28-3.83,6.38-5.64l3.07-2.61,2.22-1.83Z" transform="translate(-627.13 -85.27)"/><path class="cls-15" d="M1838.84,739.67a3.15,3.15,0,0,0,.68-6.23c-1.1-.25-27.23-6.1-49-7a3.15,3.15,0,0,0-.26,6.3c21.23.88,47.65,6.79,47.91,6.85A2.92,2.92,0,0,0,1838.84,739.67Z" transform="translate(-627.13 -85.27)"/><path class="cls-15" d="M1837,739.28a3.16,3.16,0,0,0,1.9-5.67c-10.6-8.08-25.48-17.11-26.11-17.49a3.16,3.16,0,0,0-3.27,5.4c.15.09,15.23,9.24,25.56,17.11A3.13,3.13,0,0,0,1837,739.28Z" transform="translate(-627.13 -85.27)"/><path class="cls-15" d="M1877.33,666.53a3.16,3.16,0,0,0,2.65-1.45c.56-.88,56.74-88,93.08-119.39a3.15,3.15,0,1,0-4.12-4.77c-37,32-92,117.14-94.27,120.75a3.15,3.15,0,0,0,2.66,4.86Z" transform="translate(-627.13 -85.27)"/><path class="cls-15" d="M1951.72,565.73a2.56,2.56,0,0,0,.47,0l27-4.14a3.15,3.15,0,1,0-1-6.23l-27,4.13a3.16,3.16,0,0,0,.48,6.28Z" transform="translate(-627.13 -85.27)"/><path class="cls-15" d="M1854.59,1003.79a3.12,3.12,0,0,0,1.78-.56l83.55-57.58a3.15,3.15,0,0,0-3.58-5.19L1852.79,998a3.15,3.15,0,0,0,1.8,5.75Z" transform="translate(-627.13 -85.27)"/><path class="cls-15" d="M1905,1027.52a3.11,3.11,0,0,0,1.74-.53,3.15,3.15,0,0,0,.88-4.37l-25.8-38.84a3.15,3.15,0,0,0-5.25,3.49l25.79,38.84A3.18,3.18,0,0,0,1905,1027.52Z" transform="translate(-627.13 -85.27)"/><path class="cls-15" d="M1918.83,995.12a7.39,7.39,0,1,1-3.18-10A7.38,7.38,0,0,1,1918.83,995.12Z" transform="translate(-627.13 -85.27)"/></g><path class="cls-2" d="M1348.69,1326.49c-92.43-4.46-175.2-33.89-228.73-23.73s-52.66-128.15,1-169.33c40-30.64-19-91.73-18.49-141.06-3.57-7.1-12.73-56.7,24.79-93.45,40.8-40,82.67-41.57,124.79-20.87,27.67,9.91,54.53,36.77,62.78,104.65,14.21,116.9,61.36,99,132.74,195.57C1489.33,1234.68,1441.11,1331,1348.69,1326.49Z" transform="translate(-627.13 -85.27)"/><path class="cls-13" d="M1099.53,1168.24l-13.19,18.48-13,18.45q-12.93,18.46-25.67,37.12c-17,24.89-33.72,50-50,75.85-8.14,12.95-16.16,26.06-24,39.8-3.91,6.9-7.77,13.9-11.57,21.43-1.9,3.74-3.79,7.67-5.66,11.84a150.28,150.28,0,0,0-5.61,14.25l-.18.51-.17.58-.36,1.15-.68,2.32-.7,2.72c-.22.9-.46,1.91-.57,2.51-.29,1.38-.58,2.87-.84,4.5s-.52,3.42-.73,5.57a62.39,62.39,0,0,0-.25,8.17l.08,1.43,0,.73.07.83c.06.57.11,1.08.19,1.7s.18,1.3.28,2a46.27,46.27,0,0,0,3.3,11.08,41.48,41.48,0,0,0,2,3.94c.4.71.83,1.42,1.28,2.12.2.32.48.74.75,1.14l.85,1.18c.59.8,1.16,1.52,1.83,2.31s1.46,1.66,2.24,2.45l1.19,1.16c.42.39.89.81,1.35,1.2.92.79,1.87,1.54,2.86,2.26a44.59,44.59,0,0,0,6.49,3.86c1.14.54,2.29,1,3.47,1.48s2.25.79,3.4,1.12c.57.16,1.15.32,1.72.45s1.15.27,1.65.37c1,.2,2.1.37,3.16.5.5.07,1.1.13,1.53.17l1.39.09c.93,0,1.86.07,2.79.07s1.59,0,2.4-.09l1.18-.09,1.12-.12c.66-.08,1.32-.17,2-.28s1.37-.23,1.87-.34,1.1-.24,1.64-.37,1.13-.28,1.54-.4c.89-.26,1.86-.56,2.65-.83a48.85,48.85,0,0,0,7.18-3.17c.95-.5,1.68-.93,2.45-1.39l1-.64.95-.62.89-.6.8-.56c.55-.39,1-.72,1.48-1.08,1.84-1.39,3.27-2.6,4.57-3.74,2.56-2.27,4.54-4.25,6.37-6.14,3.61-3.76,6.56-7.17,9.37-10.53,5.57-6.7,10.46-13.13,15.22-19.59,2.37-3.22,4.68-6.44,7-9.67l3.41-4.88,3.49-5.09a40.63,40.63,0,0,0-66.86-46.19l-.45.65-2.85,4.09-3,4.25c-2,2.83-4.08,5.64-6.14,8.4-4.11,5.5-8.29,10.88-12.28,15.6-2,2.33-3.93,4.52-5.49,6.11-.76.78-1.44,1.41-1.67,1.6s-.1.07.25-.2l.35-.26.54-.37.37-.24.43-.27c.38-.23.71-.41,1.24-.71a32.21,32.21,0,0,1,4.64-2c.57-.2,1.32-.44,2-.62l1.2-.32,1.3-.29c.39-.08,1-.2,1.53-.28s1.09-.17,1.64-.23l.94-.1,1-.07c.69-.05,1.33-.07,2-.08s1.63,0,2.44.06l1.21.09,1.37.14c.94.11,1.88.26,2.81.45l1.48.32c.52.13,1,.26,1.55.41,1,.3,2,.61,3.07,1a33.44,33.44,0,0,1,3.15,1.34,38.8,38.8,0,0,1,5.89,3.51c.9.64,1.76,1.32,2.59,2,.41.35.84.73,1.21,1.08s.72.68,1.07,1q1.05,1.05,2,2.19c.59.7,1.1,1.33,1.61,2,.26.35.51.69.75,1l.66,1c.38.6.75,1.21,1.1,1.82.75,1.35,1.18,2.23,1.66,3.31a34.73,34.73,0,0,1,2.55,8.41q.11.63.18,1.26l.12,1,.07.87,0,.73a18.93,18.93,0,0,1,0,2.6c0,.3,0,.24,0,0s.1-.54.2-1,.06-.2.06-.2,0,0,0,0a3.62,3.62,0,0,0,.13-.35l0-.19,0-.09.06-.15a68.63,68.63,0,0,1,2.63-6.49c1.18-2.61,2.51-5.39,4-8.28,2.92-5.76,6.25-11.79,9.69-17.83,6.93-12.12,14.47-24.4,22.2-36.63,15.5-24.49,31.85-48.9,48.47-73.16q12.48-18.19,25.21-36.28l12.76-18,12.79-17.84.27-.38a41.24,41.24,0,1,0-67-48.06Z" transform="translate(-627.13 -85.27)"/><path class="cls-17" d="M1095.14,1549.49c-1.65,10.25-1.57,18.1,1.49,22.69,4.4,6.6,39.94,13.49,84.82,17.84,2.8.27,5.64.54,8.51.79,9.46.82,19.25,1.53,29.2,2.11,2.31.14,4.64.26,7,.38,75.77,3.85,157.44-.59,162.29-24,9.36-45.07-17.44-113.19-11.27-183.43,2.49-28.35,26.17-84.17,28.34-119.28,3.31-53.47,4.25-103.56-3.29-116.23-5.28-8.86-28.14-16.66-52.77-22.7-7.62-1.87-15.42-3.57-22.91-5.09-25.58-5.19-47.69-8.17-47.69-8.17s-65.76,3.42-110.47,14.83a154.61,154.61,0,0,0-21.86,7.07c-.93.39-1.83.8-2.71,1.2-3.07,1.44-5.93,2.79-8.6,4.08-42.57,20.57-36.75,24.46-33.49,49.72,4.81,37.17,8.72,34.92-1.11,67.25-.79,2.61-1.68,5.46-2.66,8.57-2.43,7.66-5.45,17-9.16,28.46a104.37,104.37,0,0,0-5.26,24.74c-.1,1.33-.15,2.61-.16,3.85-.24,38.55,38.93,35.4,38.93,84,0,29.74-6.79,60.13-13.7,86.78-.34,1.27-.66,2.54-1,3.79-4,15.2-7.93,29.07-10.52,40.77C1096.29,1543.09,1095.63,1546.41,1095.14,1549.49Z" transform="translate(-627.13 -85.27)"/><path class="cls-18" d="M1309.32,1214.32c.63,14.42,15.47,20.55,27,23.13-.66-1.46-1.28-3-1.85-4.48-9.83-2.63-20.81-8-21.29-18.82-.5-11.09,7.26-17.26,14.33-20.56,0-1.38,0-2.77.12-4.16C1319.17,1193,1308.7,1200.33,1309.32,1214.32Z" transform="translate(-627.13 -85.27)"/><path class="cls-18" d="M1289.63,1170.72a37.66,37.66,0,0,0,22.74-7.61,17.41,17.41,0,0,0,7.37-12.59c1.48-14.45-13.19-31-13.82-31.73a1.93,1.93,0,0,0-2.87,2.57c.14.16,14.16,16,12.85,28.77a13.49,13.49,0,0,1-5.82,9.87c-17.08,12.61-34.57,4.06-35.31,3.69a1.93,1.93,0,1,0-1.74,3.44A39.38,39.38,0,0,0,1289.63,1170.72Z" transform="translate(-627.13 -85.27)"/><path class="cls-18" d="M1181,1185.51a107.52,107.52,0,0,0,13.35-.82,1.93,1.93,0,0,0-.52-3.83c-.27,0-27.28,3.6-37.78-4.93a9.93,9.93,0,0,1-3.89-7.32c-1.31-18.38,23.07-32.24,23.31-32.38a1.93,1.93,0,1,0-1.88-3.37c-1.09.61-26.76,15.23-25.28,36a13.79,13.79,0,0,0,5.31,10C1160.19,1184.29,1171.81,1185.51,1181,1185.51Z" transform="translate(-627.13 -85.27)"/><path class="cls-18" d="M1366.12,1526.2l.21,0a1.93,1.93,0,0,0,1.71-2.13c-.1-.83-9.31-84.38-10.14-131.75-.82-47.2,20.92-132.38,21.14-133.23a1.93,1.93,0,1,0-3.73-1c-.23.86-22.1,86.54-21.26,134.26.82,47.54,10.06,131.27,10.15,132.11A1.94,1.94,0,0,0,1366.12,1526.2Z" transform="translate(-627.13 -85.27)"/><path class="cls-18" d="M1176.73,1498.47c38.16,0,72.18-14.66,96.49-29.16a279.62,279.62,0,0,0,58.75-46.85,1.93,1.93,0,0,0-2.88-2.58c-.22.26-22.9,25.3-57.93,46.17-32.2,19.18-81.75,38.67-135,22.61a1.93,1.93,0,0,0-1.11,3.69A143.48,143.48,0,0,0,1176.73,1498.47Z" transform="translate(-627.13 -85.27)"/><path class="cls-18" d="M1194.57,1532.33c16.38,0,31.81-3.52,44-7.47a188.47,188.47,0,0,0,40-18.39,1.93,1.93,0,0,0-2.1-3.23c-.65.42-65,41.58-118.89,17.86a1.93,1.93,0,1,0-1.55,3.53A95.19,95.19,0,0,0,1194.57,1532.33Z" transform="translate(-627.13 -85.27)"/><path class="cls-18" d="M1197,1243.23c21.54,0,40.41-7.22,54.64-15.15a161.58,161.58,0,0,0,42.47-34.43,1.93,1.93,0,1,0-3-2.45,160.91,160.91,0,0,1-41.48,33.57c-33.62,18.7-66.68,19.64-98.26,2.78a1.93,1.93,0,0,0-1.82,3.41C1166.21,1239.84,1182.23,1243.23,1197,1243.23Z" transform="translate(-627.13 -85.27)"/><path class="cls-13" d="M1405.48,1266.63c3.31-53.47,4.25-103.56-3.29-116.23-5.28-8.86-28.14-16.66-52.77-22.7C1295.65,1201.75,1351.06,1303.36,1405.48,1266.63Z" transform="translate(-627.13 -85.27)"/><path class="cls-13" d="M1100.58,1258.59c29-32.48,34.07-87.92,34.6-117-42.57,20.57-36.75,24.46-33.49,49.72C1106.5,1228.51,1110.41,1226.26,1100.58,1258.59Z" transform="translate(-627.13 -85.27)"/><path class="cls-13" d="M1168.35,1129.27c4.93,26.4,9.24,76,50.8,76,40.47,0,93.61-65.69,107.36-82.63a342.11,342.11,0,0,1-49.93-14.76S1213.06,1117.86,1168.35,1129.27Z" transform="translate(-627.13 -85.27)"/><path class="cls-18" d="M1123,1218.32c5.19,4.07,10.56,9.74,11.85,16.45,1.15,6-1.16,12-6.84,18.07s-10.78,10.79-14.88,14.63c-13.61,12.77-19.82,18.59-10.57,35.38,2.06,3.72,2.17,7.12.34,10.11-2.91,4.72-10.3,7.7-18.43,7.44-.3,0-.63,0-1,0-.1,1.33-.15,2.61-.16,3.85l1,0c.39,0,.79,0,1.17,0,9.13,0,17.16-3.58,20.67-9.3,1.79-2.92,3.21-7.72-.24-14-7.81-14.15-3.73-18,9.82-30.69,4.14-3.88,9.3-8.72,15-14.81,6.58-7,9.23-14.2,7.83-21.45-1.61-8.37-8.31-15.09-14.35-19.6Z" transform="translate(-627.13 -85.27)"/><path class="cls-18" d="M1325.92,1316.24c-13.57-.23-21-4.46-27.56-8.19-7.65-4.34-14.26-8.1-29.32-5.35-.58.1-1.15.2-1.72.28h0c-18.71,2.82-31-10-33.57-24.2-2.36-13.23,3.64-29.23,22.4-33.1,9.73-2,19.06.79,27.71,8.33,21.15,18.43,29.82,17.09,40.79,15.4a68,68,0,0,1,13.16-1.08c8.64.29,14.47,8.62,14.18,20.26-.35,13.82-9.24,27.65-25.58,27.65Zm-.68-43c-11.49,1.76-21.42,3.29-43.91-16.31-7.7-6.71-15.91-9.22-24.4-7.46-16.32,3.37-21.49,16.81-19.39,28.64s12.18,23.63,29.2,21.07h0l1.61-.27c16.44-3,24,1.28,31.92,5.8,6.45,3.67,13.13,7.46,25.71,7.68h.42c13.87,0,21.43-12,21.73-23.88.2-7.94-3-16.06-10.45-16.31l-1.5,0A68.06,68.06,0,0,0,1325.24,1273.23Z" transform="translate(-627.13 -85.27)"/><path class="cls-18" d="M1115.34,1371.7c-10.23-10-14.72-21.26-13-32.46a1.92,1.92,0,0,1,1.27-1.53c.18-.06,18.26-6.66,21.46-33.13,2.05-17,16.12-27.72,29.15-30.81,13.6-3.22,25.87,1.13,32.83,11.64,14.88,22.46,20.13,25.68,62.42,38.29,18.58,5.54,29.49,19.63,28.48,36.79-1,17.54-15.62,37.59-45.9,42.86a120,120,0,0,1-20.49,1.66C1176.14,1405,1135.64,1391.63,1115.34,1371.7Zm39.79-94.18c-11.73,2.78-24.38,12.37-26.21,27.52-3.05,25.24-18.52,33.89-22.9,35.86-1.12,9.68,2.92,19.11,12,28,23.2,22.78,76.18,37.08,113.37,30.6,28.19-4.9,41.77-23.26,42.71-39.28.9-15.27-9-27.86-25.73-32.86-41.55-12.39-48.57-15.76-64.53-39.86-4.71-7.1-12.28-10.94-21.06-10.94A33.44,33.44,0,0,0,1155.13,1277.52Z" transform="translate(-627.13 -85.27)"/><path class="cls-18" d="M1148.21,1431.42a1.91,1.91,0,0,1,1.22-1.87c2.43-1,60-23.75,78.49-17.27a1.94,1.94,0,0,1,1.29,1.67c.1,1.37,2.29,33.56-13.39,51-6.13,6.82-14.17,10.44-23.9,10.75l-1.78,0C1150.66,1475.74,1148.23,1431.87,1148.21,1431.42Zm4,1.19a58.24,58.24,0,0,0,5.62,19.56c6.88,13.57,18.31,20.2,34,19.68,8.64-.27,15.76-3.46,21.15-9.46,12.88-14.32,12.72-40.66,12.48-46.83C1208.49,1411.34,1160.76,1429.3,1152.18,1432.61Z" transform="translate(-627.13 -85.27)"/><path class="cls-18" d="M1295.79,1553.52c-11.83-.83-19.37-6-20.68-14.15-1.59-9.94,6.67-20.72,20.09-26.21,12.68-5.19,12.74-14.81,12.81-25,0-7.34.09-14.93,5.42-20.25,7-7,19.61-8.47,28.21-3.36,7.27,4.31,9.88,12.09,7.16,21.34-5.87,20,7.45,27,8,27.32h0a1.94,1.94,0,0,1,1,1.34,1.89,1.89,0,0,1-.42,1.63c-1.33,1.57-32.14,37.41-59.51,37.41C1297.2,1553.6,1296.5,1553.57,1295.79,1553.52Zm49.31-68.71c2.21-7.53.28-13.54-5.43-16.93-7.18-4.26-17.72-3-23.51,2.76-4.21,4.21-4.25,10.69-4.29,17.55-.07,10.49-.15,22.37-15.21,28.54-13.11,5.36-18.84,15.14-17.74,22,1,6.24,7.25,10.22,17.14,10.91,22.81,1.61,50.4-27.11,57-34.35C1348.76,1512.11,1339.78,1502.9,1345.1,1484.81Z" transform="translate(-627.13 -85.27)"/><path class="cls-18" d="M1095.14,1549.49a39.62,39.62,0,0,0,5.73,12.15c3.82,5.25,8.68,8.12,13.55,8.12a13,13,0,0,0,2-.15c7.55-1.21,14.08-9.23,18.4-22.56,5.41-16.74,4.73-29.92-2-39.14s-17.91-12.05-24.18-12.88c-.34,1.27-.66,2.54-1,3.79,5.51.67,16,3.07,22.07,11.38s6.46,20.17,1.46,35.66c-3.85,11.89-9.3,19-15.34,19.94-4.1.65-8.28-1.63-11.78-6.44s-6-11.57-6.93-19.77C1096.29,1543.09,1095.63,1546.41,1095.14,1549.49Z" transform="translate(-627.13 -85.27)"/><path class="cls-18" d="M1171.67,1581.23l.1.12a62.74,62.74,0,0,0,9.68,8.67c2.8.27,5.64.54,8.51.79a62.3,62.3,0,0,1-15.23-11.93c-.53-.76-6-8.77-3-15.9,2.56-6.12,10.53-10.17,23.68-12,34.92-5,43.21,16.37,44.48,20.49-6.21,10.68-13.17,17.86-20.77,21.49,2.31.14,4.64.26,7,.38q9.6-6.73,17.55-20.65a1.92,1.92,0,0,0,.21-1.37c-.06-.29-7.05-30.12-49-24.16-14.6,2.07-23.58,6.92-26.7,14.38C1164.22,1571,1171.36,1580.82,1171.67,1581.23Z" transform="translate(-627.13 -85.27)"/><path class="cls-19" d="M1070.26,1613.6c-1.6-43.58-9-86.57-15-129.69,29,12.62,57.66,24.08,82.92,39.35h0c15.62,9.44,29.66,17.75,39.95,23.53,15.71,8.81,35.75,9.68,55.39,7,38.28-5.29,75-24.15,75-24.15s123.26-55.87,146.38-54c18,1.44-78.73,102.4-158.71,143.74-8,5.74-20.65,11.71-39.59,17.74-78.27,24.9-151.79,2.43-186-11.66Q1070.47,1619.52,1070.26,1613.6Z" transform="translate(-627.13 -85.27)"/><polygon class="cls-13" points="218.79 1717.87 208.34 1783.97 146.47 1788.28 152.92 1707.05 218.79 1717.87"/><path class="cls-20" d="M629.32,1966.07l221.27-.2c1.64-3,2.53-7.23,2.9-12.29,1.36-18.71-4.63-48.58-7.57-67.41-.36-2.2-.66-4.25-.9-6.11a64.9,64.9,0,0,1-.67-7.69c0-15.37-13.61-12.72-13.61-12.72-22.37,22-47.76-10.93-62.55-.12,0,0-6.37,4.58-23.93,20.4s-47.41,26.27-72.84,36.94c-32.82,13.75-42.12,27.47-43.93,36.91C626.06,1961.27,629.32,1966.07,629.32,1966.07Z" transform="translate(-627.13 -85.27)"/><path class="cls-21" d="M629.32,1966.07l221.27-.2c1.64-3,2.53-7.23,2.9-12.29l-226,.2C626.06,1961.27,629.32,1966.07,629.32,1966.07Z" transform="translate(-627.13 -85.27)"/><path class="cls-5" d="M764.89,1868.93s-4-9.66-12.74-6.58-7.88,17.57-7.88,17.57S749.55,1893.09,764.89,1868.93Z" transform="translate(-627.13 -85.27)"/><path class="cls-5" d="M767.64,1912.43a3.65,3.65,0,0,0,3.64-3.65c0-22-13.77-33.86-14.36-34.36a3.64,3.64,0,0,0-4.71,5.56c.5.43,11.76,10.35,11.78,28.8A3.65,3.65,0,0,0,767.64,1912.43Z" transform="translate(-627.13 -85.27)"/><path class="cls-5" d="M721.63,1883.82a3.68,3.68,0,0,0,2.42-.92c4.63-4.12,18.22-4.9,25.7-4.42a3.65,3.65,0,1,0,.46-7.28c-2.29-.15-22.62-1.2-31,6.24a3.65,3.65,0,0,0,2.43,6.38Z" transform="translate(-627.13 -85.27)"/><path class="cls-5" d="M753.68,1871.56l1.87,1.87-.21,0-.05.23-1.51,7.52c.05,0,.32.07.84.14a52.18,52.18,0,0,0,7,.38h1.46a138.25,138.25,0,0,0,16.17-1.37c7.18-1,13.25-3.41,17.42-6.77a16.33,16.33,0,0,0,5.34-7.16c.08-.23.15-.47.21-.69a11.26,11.26,0,0,0-2.88-11.13,15.46,15.46,0,0,0-11.44-4.86h-.28c-4.3,0-8.84,1.42-13.2,3.49a79.69,79.69,0,0,0-14.88,9.63c-.39.31-.77.61-1.13.92-1.86,1.53-3.43,2.92-4.58,4s-1.74,1.64-2.06,2Zm7.92,2.21c-1,0-1.88,0-2.64,0,1.55-1.43,3.57-3.18,5.85-5h0a84.28,84.28,0,0,1,9.25-6.4,40.48,40.48,0,0,1,8.41-3.87,17.33,17.33,0,0,1,5.15-.89h.19a7.64,7.64,0,0,1,5.82,2.41,3.46,3.46,0,0,1,1.11,3.06,5,5,0,0,1-.18.69c-1.18,3.39-6.71,7.4-16.37,8.73-1.61.21-3.14.4-4.56.56A112.84,112.84,0,0,1,761.6,1873.77Z" transform="translate(-627.13 -85.27)"/><path class="cls-5" d="M747.73,1877.67l3.38-7.14c-7.28-3.44-14.24-12.5-13.8-18,.11-1.33.67-3,4.1-4,2.38-.68,3.56-.1,4.32.49,3.81,2.94,5,12.92,4.88,18.52l7.9.2c0-1.89.25-18.63-7.94-25-2.19-1.69-5.93-3.39-11.34-1.83-7.94,2.28-9.55,7.81-9.8,10.91C728.65,1861.64,738.45,1873.29,747.73,1877.67Z" transform="translate(-627.13 -85.27)"/><path class="cls-21" d="M828,1965.9h6.57c-6.56-7.49-12.71-19-11.92-35.42,1.05-21.86,14.15-36.61,23.26-44.3-.36-2.2-.66-4.25-.9-6.11-9.82,7.52-26.36,24-27.63,50.15C816.64,1945.91,821.8,1957.62,828,1965.9Z" transform="translate(-627.13 -85.27)"/><path class="cls-5" d="M748,1893a3.65,3.65,0,0,0,.87-7.19l-13.83-3.42a3.65,3.65,0,0,0-1.75,7.08l13.83,3.42A3.79,3.79,0,0,0,748,1893Z" transform="translate(-627.13 -85.27)"/><path class="cls-5" d="M734.21,1901a3.64,3.64,0,0,0,.87-7.18l-13.82-3.42a3.65,3.65,0,1,0-1.75,7.08l13.82,3.42A3.83,3.83,0,0,0,734.21,1901Z" transform="translate(-627.13 -85.27)"/><path class="cls-5" d="M720.4,1908.76a3.65,3.65,0,0,0,.87-7.19l-13.83-3.42a3.65,3.65,0,0,0-1.75,7.08l13.83,3.42A3.79,3.79,0,0,0,720.4,1908.76Z" transform="translate(-627.13 -85.27)"/><path class="cls-5" d="M705.33,1915.91a3.64,3.64,0,0,0,.87-7.18l-13.82-3.42a3.65,3.65,0,1,0-1.75,7.08l13.82,3.42A3.35,3.35,0,0,0,705.33,1915.91Z" transform="translate(-627.13 -85.27)"/><path class="cls-5" d="M689,1922a3.65,3.65,0,0,0,.87-7.19L676,1911.42a3.64,3.64,0,1,0-1.75,7.07l13.82,3.42A3.37,3.37,0,0,0,689,1922Z" transform="translate(-627.13 -85.27)"/><path class="cls-19" d="M1160.66,1536.71c-74.78-39.56-206.14-118.5-261.48-129.72-96.49-19.55-127.9,411.16-127.9,411.16l77.42,7.56s72.43-185.65,78.19-257.22c0,0,100.73,96.81,304.78,100.86Z" transform="translate(-627.13 -85.27)"/><path class="cls-22" d="M858.5,1806.18s-1.32,14.51-11.2,23.52l-80.28-8s-1.79-18.28,2.27-25.69Z" transform="translate(-627.13 -85.27)"/><path class="cls-22" d="M841.11,1808.44a2.26,2.26,0,0,0,2.16-1.6c.19-.64,19.54-64.16,37.74-120.1,16.06-49.37,33-140.66,37-162.62,19.16,22.86,44.45,43.57,75.25,61.61,25.94,15.2,55.84,28.56,88.87,39.7,56.19,19,102.64,25,103.1,25.08a2.26,2.26,0,0,0,.57-4.48c-.46-.06-46.54-6.08-102.32-24.91-51.35-17.33-121.67-49.38-165.07-103.63a2.25,2.25,0,0,0-4,1c-.2,1.11-19.52,111-37.68,166.83-18.21,56-37.57,119.55-37.76,120.18a2.26,2.26,0,0,0,1.5,2.82A2.51,2.51,0,0,0,841.11,1808.44Z" transform="translate(-627.13 -85.27)"/><path class="cls-13" d="M1197.29,1139.41c42.67,57.45,94-11.22,93.32-26.55-17.7-34.17-22.66-79.56-22.66-79.56l-82.06,45.86c.64,2.52,1.29,5,1.93,7.58,3,11.69,6,23.65,7.84,36.51A130.55,130.55,0,0,1,1197.29,1139.41Z" transform="translate(-627.13 -85.27)"/><path class="cls-2" d="M1195.66,1123.25c44.12-17.87,66-70.1,66-70.1l-73.83,33.59C1190.81,1098.43,1193.8,1110.39,1195.66,1123.25Z" transform="translate(-627.13 -85.27)"/><path class="cls-14" d="M1155.92,1017.58s-10.27-20.38-27-12.66-8,66,25,58.81Z" transform="translate(-627.13 -85.27)"/><path class="cls-5" d="M1153.72,1106.25a29.44,29.44,0,1,1,28.45-30.39A29.48,29.48,0,0,1,1153.72,1106.25Zm-1.79-54.46a25,25,0,1,0,25.85,24.21A25.07,25.07,0,0,0,1151.93,1051.79Z" transform="translate(-627.13 -85.27)"/><path class="cls-13" d="M1270.28,1040.08c-5.53,24.66-61.93,61-88.53,53.16-16.14-4.72-31.6-16.77-43.68-46.73-.06-.16-.12-.32-.19-.48-.71-1.77-1.38-3.51-2-5.25-1.16-3.13-2.21-6.2-3.14-9.15-.21-.69-.43-1.38-.63-2.06-.54-1.84-1-3.63-1.46-5.35-.53-2.13-1-4.16-1.32-6.07-5.57-31-12.47-65.78,13.09-89.47s69.12-35.53,98.75-11.38c0,0,22.5,21.54,28.35,66.71S1274.28,1022.27,1270.28,1040.08Z" transform="translate(-627.13 -85.27)"/><path class="cls-2" d="M1216.43,915.29s21.56,46.64,37.09,54.39,24.2-17.69,24.2-17.69S1238.59,881.42,1216.43,915.29Z" transform="translate(-627.13 -85.27)"/><path class="cls-2" d="M1156,925.32s33.09,36.36,66.81,22.17,6.21-40.11,6.21-40.11S1160.27,889.61,1156,925.32Z" transform="translate(-627.13 -85.27)"/><path class="cls-2" d="M1164.88,920.71s-10.28,54.44-45.74,50.17,5.77-62.24,28.94-63.28S1164.88,920.71,1164.88,920.71Z" transform="translate(-627.13 -85.27)"/><path class="cls-14" d="M1196.79,1060.56a10.61,10.61,0,0,1-1.34.14,1.77,1.77,0,0,1-.1-3.54c.29,0,6.65-.3,9.44-6.15a1.77,1.77,0,1,1,3.19,1.53A14.6,14.6,0,0,1,1196.79,1060.56Z" transform="translate(-627.13 -85.27)"/><path class="cls-23" d="M1181.86,1051.94a25.08,25.08,0,0,1-3.88.34,1.77,1.77,0,1,1,.06-3.54c.89,0,21.4.07,22.84-21.38a1.77,1.77,0,1,1,3.53.24C1203.15,1046.34,1188.9,1050.86,1181.86,1051.94Z" transform="translate(-627.13 -85.27)"/><path class="cls-2" d="M1179.39,1032.27a16.68,16.68,0,0,0,3.36-.58,2.12,2.12,0,1,0-1.15-4.08,12.64,12.64,0,0,1-10-1.45c5-10,4.7-32.79,4.69-33.82a2.12,2.12,0,0,0-4.24.07c.11,7.08-.58,26.84-5,33.14a2.12,2.12,0,0,0,.33,2.79A17.38,17.38,0,0,0,1179.39,1032.27Z" transform="translate(-627.13 -85.27)"/><path class="cls-14" d="M1137.88,1046c-.71-1.77-1.38-3.51-2-5.25-1.16-3.13-2.21-6.2-3.14-9.15-.21-.69-.43-1.38-.63-2.06l1.56-.32c11.64-2.18,21.81-.15,22.68,4.53S1149,1043.72,1137.88,1046Z" transform="translate(-627.13 -85.27)"/><path class="cls-14" d="M1246.79,1014.89c.88,4.69-7.85,10.27-19.49,12.46s-21.81.17-22.69-4.53,7.84-10.27,19.49-12.46S1245.9,1010.2,1246.79,1014.89Z" transform="translate(-627.13 -85.27)"/><path class="cls-5" d="M1177,1002.77a28.69,28.69,0,1,1,30.6,26.66A28.73,28.73,0,0,1,1177,1002.77Zm4.23-.29a24.46,24.46,0,1,0,22.72-26.07A24.47,24.47,0,0,0,1181.21,1002.48Z" transform="translate(-627.13 -85.27)"/><path class="cls-5" d="M1112.07,1015.7a28.69,28.69,0,1,1,30.59,26.66A28.72,28.72,0,0,1,1112.07,1015.7Zm4.22-.29A24.46,24.46,0,1,0,1139,989.34,24.48,24.48,0,0,0,1116.29,1015.41Z" transform="translate(-627.13 -85.27)"/><path class="cls-5" d="M1168.78,1011.13c3.41-5.37,9-2.62,9.61-2.29l2-3.72c-3.3-1.8-10.72-3.34-15.2,3.74Z" transform="translate(-627.13 -85.27)"/><path class="cls-5" d="M1230.9,990.2a2.84,2.84,0,0,0,2.15-1.22c.26-.3,4.44-4.75,24.31-9.39a2.84,2.84,0,1,0-1.3-5.52c-22.86,5.33-27.15,10.79-27.78,11.83a2.84,2.84,0,0,0,2.62,4.3Z" transform="translate(-627.13 -85.27)"/><path class="cls-5" d="M1114.33,1017.67a2.1,2.1,0,0,0,1.2-.48c2.91-2.41,8.91-3.66,11-3.94a2.11,2.11,0,1,0-.56-4.19c-.35.05-8.7,1.2-13.12,4.87a2.12,2.12,0,0,0,1.5,3.74Z" transform="translate(-627.13 -85.27)"/><path class="cls-2" d="M1183.12,963.67s7.42-10.67,20.48-9.67c7.3.56,7.51,7.71-.69,9.06-5.72.94-8.7,1.79-13.71,5.46S1181.05,966,1183.12,963.67Z" transform="translate(-627.13 -85.27)"/><path class="cls-2" d="M1151,971s-11-7-22.63-1c-6.51,3.34-3.93,10,4.14,8.08,5.64-1.35,8.72-1.72,14.76-.28S1153.82,972.39,1151,971Z" transform="translate(-627.13 -85.27)"/><path class="cls-13" d="M1257.3,980.2s7.37-19.8,27-14.85,22.14,69.87-15.07,68.83Z" transform="translate(-627.13 -85.27)"/><path class="cls-5" d="M1293.88,1018.33c-.84,1.36-1.26,2.7-2.12,4a25.06,25.06,0,1,1-15.62,3.47c5.11-2.41,5.57-4.74,5.39-7a29.44,29.44,0,1,0,37,27.48C1318.05,1032.21,1307.24,1020.74,1293.88,1018.33Z" transform="translate(-627.13 -85.27)"/><path class="cls-2" d="M1269.9,1008.61a1.74,1.74,0,0,0,1.59,1.88,1.61,1.61,0,0,0,.38,0,1.76,1.76,0,0,0,1.51-1.59,35.64,35.64,0,0,1,4-12.57c4.07,2.56,7.37,5,7.42,5a1.7,1.7,0,0,0,1.27.33,1.74,1.74,0,0,0,.81-3.13c-.15-.11-3.46-2.56-7.63-5.19a21.24,21.24,0,0,1,9.8-7.6,1.75,1.75,0,0,0-1.23-3.27C1271.78,988.52,1270,1007.79,1269.9,1008.61Z" transform="translate(-627.13 -85.27)"/><path class="cls-2" d="M1201.6,999.51c.83,4.19-.43,8-2.83,8.44s-5-2.53-5.84-6.72.43-8,2.83-8.44S1200.77,995.32,1201.6,999.51Z" transform="translate(-627.13 -85.27)"/><path class="cls-2" d="M1154.91,1009.87c.83,4.19-.43,8-2.83,8.44s-5-2.53-5.84-6.72.43-8,2.83-8.44S1154.08,1005.68,1154.91,1009.87Z" transform="translate(-627.13 -85.27)"/><path class="cls-4" d="M1031.55,1544.6l342.4,36.86a1.39,1.39,0,0,0,1.53-1.23h0a19.35,19.35,0,0,0-17.17-21.32L1033.77,1524a1.4,1.4,0,0,0-1.53,1.24l-1.92,17.86A1.39,1.39,0,0,0,1031.55,1544.6Z" transform="translate(-627.13 -85.27)"/><path class="cls-2" d="M937.6,1343.1l23.28,185.35a10.73,10.73,0,0,0,9.5,9.34l263.27,28.34a10.74,10.74,0,0,0,11.81-12l-23.28-185.35a10.74,10.74,0,0,0-9.51-9.34l-263.26-28.34A10.74,10.74,0,0,0,937.6,1343.1Z" transform="translate(-627.13 -85.27)"/><path class="cls-4" d="M1108.66,1452c-2.09,16.19-31.76,33.55-31.76,33.55s-29.74-23.76-31.87-40.4c-2.31-18,18.35-21.27,31.8-6.41C1090.24,1426.78,1110.93,1434.47,1108.66,1452Z" transform="translate(-627.13 -85.27)"/><path class="cls-4" d="M1202.24,1358.31l23.75,207,7.66.82a10.74,10.74,0,0,0,11.81-12l-23.28-185.35a10.74,10.74,0,0,0-9.51-9.34Z" transform="translate(-627.13 -85.27)"/><path class="cls-13" d="M1092.63,1696.64s28.13-4.5,36.86-13.73l18.31,58.51-67.25,13.82S1081.36,1705.88,1092.63,1696.64Z" transform="translate(-627.13 -85.27)"/><path class="cls-20" d="M928.58,1839.55l86.94-193c3.25-.26,7.3.62,11.86,2.29,16.86,6.15,40.57,23.09,55.85,33,1.77,1.17,3.45,2.24,5,3.18a62.48,62.48,0,0,0,6.45,3.59c13.41,6,6.5,10.4,6.5,10.4-28,10.9-9.93,52.42-25.16,61.09,0,0-6.49,3.76-27.18,12.88s-41.52,31.06-60.79,49.06c-24.87,23.24-40.49,26-49.44,23.85C931.5,1844.27,928.58,1839.55,928.58,1839.55Z" transform="translate(-627.13 -85.27)"/><path class="cls-5" d="M1080.73,1749.29s7.72,5.29,3.37,12.4-16.88,3.6-16.88,3.6S1056.68,1758.19,1080.73,1749.29Z" transform="translate(-627.13 -85.27)"/><path class="cls-5" d="M1043.14,1738.7a3.27,3.27,0,0,1,3.88-2.51c19.25,4.16,27.08,18.44,27.4,19a3.27,3.27,0,0,1-5.76,3.09c-.28-.52-6.85-12.26-23-15.75A3.27,3.27,0,0,1,1043.14,1738.7Z" transform="translate(-627.13 -85.27)"/><path class="cls-5" d="M1059.55,1784.39a3.24,3.24,0,0,1,1.26-1.94c4.47-3.28,7.72-15,8.7-21.69a3.27,3.27,0,0,1,6.47,1c-.3,2-3.2,20-11.31,26a3.27,3.27,0,0,1-5.12-3.33Z" transform="translate(-627.13 -85.27)"/><path class="cls-5" d="M1077.64,1760.64c.34-.22,1.07-.71,2.1-1.43s2.66-1.92,4.35-3.27c.34-.25.67-.53,1-.82a71.18,71.18,0,0,0,11.24-11.21,28.56,28.56,0,0,0,5.55-10.91c0-.08,0-.17,0-.26a13.89,13.89,0,0,0-2.1-10.93,10.11,10.11,0,0,0-9.21-4.62c-.21,0-.44,0-.65.06a14.53,14.53,0,0,0-7.28,3.33c-3.73,3-7,7.88-9.21,14a126,126,0,0,0-4.24,13.91c-.1.44-.19.88-.28,1.28a46.08,46.08,0,0,0-1,6.22c0,.46,0,.71,0,.76l6.88.09h.2s0-.07,0-.19l1.29,2Zm1.15-19.78c.4-1.21.85-2.51,1.35-3.89,3-8.21,7.53-12.3,10.72-12.7l.64,0a3.14,3.14,0,0,1,2.47,1.55,6.87,6.87,0,0,1,1,5.56l0,.16a16,16,0,0,1-1.75,4.35,36.41,36.41,0,0,1-5,6.64,76.06,76.06,0,0,1-7.35,6.9h0c-2,1.66-3.9,3.1-5.45,4.18.12-.66.26-1.43.45-2.32A101,101,0,0,1,1078.79,1740.86Z" transform="translate(-627.13 -85.27)"/><path class="cls-5" d="M1069.84,1762.68l6.9-1.61c1.64,7,8.27,14.83,13.14,15.47,1.18.15,2.73,0,4.24-2.85,1.05-2,.76-3.1.39-3.88-1.86-3.89-10.38-6.82-15.31-7.76l1.31-7c1.66.31,16.37,3.29,20.38,11.66,1.08,2.24,1.86,5.83-.52,10.28-3.49,6.53-8.65,6.89-11.41,6.53C1080.3,1782.42,1071.93,1771.64,1069.84,1762.68Z" transform="translate(-627.13 -85.27)"/><path class="cls-21" d="M928.58,1839.55l86.94-193c3.25-.26,7.3.62,11.86,2.29L938.58,1846C931.5,1844.27,928.58,1839.55,928.58,1839.55Z" transform="translate(-627.13 -85.27)"/><path class="cls-21" d="M1006.65,1666.27l2.58-5.74c4,8.67,11.58,18.54,26.23,24.3,19.48,7.66,37.49,2,47.77-2.92,1.77,1.17,3.45,2.24,5,3.18-10.4,5.62-31.24,13.6-54.58,4.43C1019.62,1684,1011.44,1674.93,1006.65,1666.27Z" transform="translate(-627.13 -85.27)"/><path class="cls-5" d="M1038.9,1764.64a3.49,3.49,0,0,1,6.61,2.06l-2.44,13.41a3.49,3.49,0,0,1-6.86-1.25l2.44-13.41A3.8,3.8,0,0,1,1038.9,1764.64Z" transform="translate(-627.13 -85.27)"/><path class="cls-5" d="M1054.33,1757.19a3.49,3.49,0,0,1,6.61,2.06l-2.43,13.4a3.49,3.49,0,1,1-6.86-1.25l2.43-13.4A3.48,3.48,0,0,1,1054.33,1757.19Z" transform="translate(-627.13 -85.27)"/><path class="cls-5" d="M1026.46,1773.54a3.49,3.49,0,0,1,6.61,2.06l-2.43,13.4a3.49,3.49,0,0,1-6.87-1.25l2.44-13.4A3.8,3.8,0,0,1,1026.46,1773.54Z" transform="translate(-627.13 -85.27)"/><path class="cls-5" d="M1014.3,1782.56a3.49,3.49,0,0,1,6.61,2.06l-2.44,13.4a3.49,3.49,0,1,1-6.86-1.24l2.44-13.41A3.18,3.18,0,0,1,1014.3,1782.56Z" transform="translate(-627.13 -85.27)"/><path class="cls-5" d="M1002.15,1792.9a3.49,3.49,0,0,1,6.61,2.06l-2.44,13.4a3.49,3.49,0,1,1-6.86-1.25l2.44-13.4A3.06,3.06,0,0,1,1002.15,1792.9Z" transform="translate(-627.13 -85.27)"/><path class="cls-5" d="M990.41,1804.76a3.49,3.49,0,0,1,6.61,2.06l-2.44,13.4a3.49,3.49,0,1,1-6.86-1.25l2.44-13.4A3.48,3.48,0,0,1,990.41,1804.76Z" transform="translate(-627.13 -85.27)"/><path class="cls-19" d="M1454.86,1475.61s78-42.1,123.19-9.56c82.63,59.51-57.57,174-218,229.89s-212.46,48.27-212.46,48.27-34.85-9.58-22.49-66.06c0,0,92.45-35.15,140.56-72S1346.59,1524.24,1454.86,1475.61Z" transform="translate(-627.13 -85.27)"/><path class="cls-22" d="M1166.85,1664.05a2.32,2.32,0,0,0,1.1-.29c.8-.45,80.43-45.26,113.28-72.22,26.43-21.69,84.36-62.37,84.94-62.78a2.25,2.25,0,0,0-2.59-3.69c-.59.41-58.66,41.19-85.22,63-32.54,26.71-111.82,71.32-112.62,71.77a2.26,2.26,0,0,0,1.11,4.23Z" transform="translate(-627.13 -85.27)"/><path class="cls-22" d="M1131.38,1694.58c33.64-8.09,102.19-39.53,183.37-84.11,60.71-33.34,130.73-76,141-90.73,5.55-8,6.94-14.51,4.15-19.41-4.17-7.32-16.2-8.08-21.69-8a2.43,2.43,0,0,0-2.41,2.61h0a2.44,2.44,0,0,0,2.43,2.27c5.39,0,14.77.88,17.44,5.56,2.21,3.89-.91,9.87-3.93,14.21-8.28,11.92-66.89,49.45-139.35,89.24-62.4,34.26-143,74.23-182.16,83.63Z" transform="translate(-627.13 -85.27)"/><path class="cls-22" d="M1137.71,1670.65c3.79,29.69,11.49,56.67,28.26,77.36,0,0-14.36,10.34-27.48,2.92-10-5.66-29.33-52-22-76.78C1124.9,1669.57,1132.13,1668,1137.71,1670.65Z" transform="translate(-627.13 -85.27)"/><path class="cls-13" d="M1497.68,1417.77c-.48-7-1.28-13.44-2.2-19.74-1.84-12.59-4.24-24.34-6.93-35.85s-5.66-22.66-8.84-33.66-6.57-21.81-10-32.54q-10.62-32.12-22.89-63.1c-4.14-10.33-8.25-20.65-12.66-30.86-2.19-5.11-4.39-10.22-6.66-15.32l-3.46-7.64-1.76-3.85-1.88-4a48.59,48.59,0,0,0-89.54,37.54l.23.61,10.86,29.36c3.6,9.92,7.33,19.79,10.86,29.72,7.15,19.83,14.17,39.63,20.71,59.35s12.7,39.38,17.8,58.47c1.28,4.78,2.41,9.5,3.52,14.14s2.08,9.21,2.9,13.61c.41,2.18.78,4.34,1.1,6.42-3.17.91-6.46,1.79-9.82,2.65-9.47,2.43-19.43,4.65-29.53,6.77s-20.38,4.12-30.72,6.09c-20.7,3.9-41.7,7.55-62.76,11.21l-31.65,5.47-2.3.39c2.93,24.61,7.08,49.09,9.1,73.78,10.9-.06,21.8-.29,32.71-.55,22.06-.64,44.13-1.8,66.39-3.58,11.13-.87,22.3-2,33.59-3.26s22.67-2.86,34.4-4.88c5.88-1,11.84-2.18,18-3.57s12.61-3,19.8-5.38A126.93,126.93,0,0,0,1458,1501c2.21-1,4.65-2.18,7.39-3.72a71.87,71.87,0,0,0,9.63-6.44c1-.79,1.88-1.53,3-2.56l1.58-1.47c.56-.55,1.18-1.18,1.75-1.78l.86-.92.42-.46.48-.56c.64-.74,1.27-1.5,1.87-2.27s1.31-1.72,2-2.64l1-1.43c.32-.48.61-.94,1-1.55.69-1.14,1.34-2.31,2-3.5l.45-.91.49-1c.31-.7.62-1.4.91-2.1s.57-1.42.83-2.14.55-1.59.79-2.38.49-1.64.7-2.46l.31-1.24.17-.75.81-4c.12-.65.27-1.37.36-2l.27-1.83c.17-1.21.35-2.46.49-3.64l.32-3.38.15-1.69.1-1.59A175.89,175.89,0,0,0,1497.68,1417.77Z" transform="translate(-627.13 -85.27)"/><path class="cls-14" d="M1451.5,1440.17a2.33,2.33,0,0,1-1.6-.63c-18-16.91-47.85-17.14-48.15-17.14a2.33,2.33,0,1,1,0-4.66c1.3,0,31.94.21,51.34,18.39a2.33,2.33,0,0,1-1.59,4Z" transform="translate(-627.13 -85.27)"/><path class="cls-14" d="M1410.67,1423.09a2.33,2.33,0,0,1-1.15-4.36c11.85-6.74,34.27-3.48,35.21-3.34a2.34,2.34,0,1,1-.69,4.62c-.21,0-21.76-3.16-32.22,2.78A2.38,2.38,0,0,1,1410.67,1423.09Z" transform="translate(-627.13 -85.27)"/></svg>